<?xml version="1.0" standalone="no"?>
<!DOCTYPE svg PUBLIC "-//W3C//DTD SVG 20010904//EN"
 "http://www.w3.org/TR/2001/REC-SVG-20010904/DTD/svg10.dtd">
<svg version="1.0" xmlns="http://www.w3.org/2000/svg"
 width="100.000000pt" height="100.000000pt" viewBox="0 0 100.000000 100.000000"
 preserveAspectRatio="xMidYMid meet">
<metadata>
Created by potrace 1.14, written by Peter Selinger 2001-2017
</metadata>
<g transform="translate(0.000000,100.000000) scale(0.100000,-0.100000)"
fill="#000000" stroke="none">
<path d="M475 894 c-11 -26 -19 -51 -17 -55 3 -13 -12 -11 -25 2 -8 8 -13 -3
-18 -40 -4 -27 -4 -54 -1 -59 3 -5 -1 -35 -9 -66 -19 -71 -19 -76 0 -76 16 0
16 -1 19 -52 3 -47 -2 -51 -28 -21 l-23 26 -22 -22 c-14 -14 -20 -29 -16 -41
5 -17 3 -17 -30 -8 -23 8 -35 17 -35 29 0 30 -15 29 -48 -2 -23 -21 -32 -26
-32 -15 0 9 -8 16 -19 16 -14 0 -20 -10 -25 -39 -8 -51 -31 -71 -52 -45 -11
14 -14 15 -13 4 1 -8 1 -26 0 -40 -2 -24 -2 -24 -16 -7 -7 11 -11 26 -8 35 4
9 2 13 -4 9 -6 -4 -10 -24 -10 -44 2 -29 -4 -43 -21 -58 -16 -14 -23 -29 -20
-47 l3 -26 60 25 c33 14 94 37 136 53 72 26 78 26 113 12 36 -14 38 -17 33
-51 -3 -20 -9 -49 -12 -66 -7 -29 -7 -29 9 -10 14 18 15 18 16 3 0 -10 7 -18
15 -18 8 0 14 3 14 7 -3 21 2 33 16 33 12 0 13 -5 4 -27 -7 -19 -7 -28 2 -34
9 -5 10 -11 2 -21 -17 -20 -43 -88 -34 -88 4 0 14 11 21 25 14 27 32 25 24 -3
-5 -16 -5 -16 9 0 17 22 27 23 27 3 0 -15 5 -17 40 -17 43 0 49 2 44 17 -4 8
-1 15 5 15 7 0 14 -7 17 -15 8 -20 24 -9 18 13 -3 9 6 4 20 -13 31 -36 32 -32
5 30 -14 31 -17 50 -11 54 7 4 8 12 2 21 -13 20 -12 40 1 40 6 0 13 -9 16 -20
3 -11 12 -20 20 -20 8 0 11 5 7 11 -4 8 1 9 15 4 21 -7 22 -6 7 29 -8 19 -13
43 -11 53 2 10 4 23 4 28 1 14 80 35 87 24 3 -5 13 -9 22 -9 9 0 65 -20 125
-45 l107 -44 0 31 c0 17 -7 36 -16 43 -15 10 -18 23 -23 83 -1 6 -6 12 -12 12
-5 0 -8 -4 -5 -9 4 -5 3 -17 0 -26 -5 -13 -8 -14 -15 -3 -5 7 -9 23 -9 36 0
12 -4 22 -10 22 -5 0 -7 -7 -4 -15 4 -8 1 -15 -6 -15 -20 0 -38 26 -44 65 -8
49 -10 51 -33 28 -17 -18 -19 -18 -45 11 l-27 30 -10 -26 c-6 -15 -22 -30 -40
-36 -29 -10 -31 -9 -31 13 0 20 -22 55 -35 55 -2 0 -16 -12 -30 -27 l-25 -28
0 49 c0 40 3 49 21 53 14 4 18 11 14 22 -13 31 -17 56 -21 116 -2 33 -4 62 -5
65 0 3 -2 13 -3 22 0 10 -5 17 -11 15 -5 -1 -9 -8 -9 -14 1 -7 -2 -10 -7 -7
-5 3 -9 14 -9 26 0 21 -39 98 -49 98 -3 0 -15 -21 -26 -46z m-174 -456 c23 -6
41 -19 45 -30 9 -29 2 -30 -53 -12 -41 13 -50 20 -46 35 6 22 5 22 54 7z m459
-6 c0 -12 -15 -23 -47 -35 -59 -21 -59 -21 -59 3 0 14 12 24 41 34 54 19 65
19 65 -2z"/>
</g>
</svg>
